<svg xmlns="http://www.w3.org/2000/svg" width="306.99" height="93.924" viewBox="0 0 306.99 93.924"><g transform="translate(-948.418 -2076.638)"><path d="M20.811,106.9,0,36.773H15.908L31.089,90.7h.2L47.679,36.773H63.586L40.387,106.9Z" transform="translate(948.418 2062.419)" fill="#fff"></path><path d="M119.076,106.937V36.773h14.9v70.164Z" transform="translate(902.453 2062.419)" fill="#fff"></path><path d="M231.213,70.636c0,19.857-14.986,36.49-36.147,36.49s-36.147-16.633-36.147-36.49,14.985-36.49,36.147-36.49S231.213,50.778,231.213,70.636Zm-57.309,0c0,11.793,7.9,21.975,21.162,21.975s21.161-10.182,21.161-21.975-7.9-21.975-21.161-21.975S173.9,58.841,173.9,70.636Z" transform="translate(887.072 2063.436)" fill="#fff"></path><path d="M420.3,106.937V36.773h14.9v25.26h19.13V36.773h14.9v70.164h-14.9V76.065H435.2v30.872Z" transform="translate(786.172 2062.419)" fill="#fff"></path><path d="M329.238,34.929,323.2,43.387l-6.163-8.453c-17.875,2.858-30.033,18.12-30.033,36,0,19.857,14.985,36.49,36.147,36.49S359.3,90.8,359.3,70.939C359.3,53.044,347.13,37.774,329.238,34.929Zm-6.082,57.984c-13.264,0-21.162-10.182-21.162-21.975s7.9-21.975,21.162-21.975,21.161,10.179,21.161,21.975S336.42,92.913,323.156,92.913Z" transform="translate(837.627 2063.132)" fill="#fff"></path><path class="dotsS" d="M340.96,0l7.8,9.848-7.7,10.8-7.8-10.7Z" transform="translate(819.773 2076.638)" fill="#fff"></path></g></svg>
